<!DOCTYPE svg PUBLIC "-//W3C//DTD SVG 1.1//EN" "http://www.w3.org/Graphics/SVG/1.1/DTD/svg11.dtd">
<!-- Uploaded to: SVG Repo, www.svgrepo.com, Transformed by: SVG Repo Mixer Tools -->
<svg fill="#e8e8e8" height="800px" width="800px" version="1.1" id="Layer_1" xmlns="http://www.w3.org/2000/svg" xmlns:xlink="http://www.w3.org/1999/xlink" viewBox="0 0 512.01 512.01" xml:space="preserve" stroke="#e8e8e8">
<g id="SVGRepo_bgCarrier" stroke-width="0"/>
<g id="SVGRepo_tracerCarrier" stroke-linecap="round" stroke-linejoin="round"/>
<g id="SVGRepo_iconCarrier"> <g> <g> <path d="M463.365,283.093L374.192,36.48c-1.387-3.733-4.587-6.4-8.533-6.933l-44.8-6.293L318.405,8.96 c-0.853-5.12-5.227-8.853-10.453-8.96H204.058c-5.227,0-9.6,3.84-10.453,8.96l-2.347,14.293l-44.8,6.293 c-3.947,0.533-7.147,3.2-8.533,6.933l-89.28,246.613c-1.707,4.8,0.107,10.133,4.48,12.8l43.947,26.453 c4.907,2.987,11.307,1.493,14.507-3.307l66.667-102.293l4.053,17.92L120.112,479.36c-1.28,4.8,1.067,9.92,5.547,12.16 c31.253,15.68,74.88,19.627,103.147,20.373c0.213,0,0.427,0.107,0.747,0.107c0.32,0,0.32-0.107,0.533-0.107 c13.653,0.32,23.467-0.107,26.133-0.213c1.92,0.107,7.573,0.32,15.787,0.32c26.347,0,78.72-2.56,114.667-20.587 c4.48-2.24,6.827-7.36,5.547-12.16l-62.293-244.8l4.053-17.92l66.667,102.293c3.093,4.8,9.493,6.293,14.4,3.307l43.84-26.453 C463.258,293.333,465.072,287.893,463.365,283.093z M218.672,490.133c-23.04-1.173-52.587-4.693-75.84-14.187l58.667-230.507 h17.173V490.133z M221.658,84.693c-1.92,2.027-2.987,4.587-2.987,7.36v132.053h-17.067l-8.32-36.587c-1.28-5.76-7.04-9.28-12.8-8 c-2.667,0.533-5.013,2.24-6.507,4.48L99.205,298.773l-27.52-16.64l84.053-232.32l46.293-6.4c3.627-0.533,6.72-2.88,8.213-6.187 l29.12,29.013L221.658,84.693z M224.538,21.44h57.6l-28.053,29.333L224.538,21.44z M369.178,475.947 c-44.267,18.027-111.893,14.507-112.533,14.507c-0.427,0-0.747,0-1.173,0c-0.213,0-6.187,0.32-15.36,0.32V245.44h70.613 L369.178,475.947z M412.805,298.773L338.032,184c-3.2-4.907-9.813-6.293-14.72-3.093c-2.347,1.493-3.947,3.84-4.587,6.507 l-8.32,36.693h-70.4V96.427l18.88-19.733c2.987-1.067,5.227-3.413,6.187-6.507l35.733-37.333l0.32,1.707 c0.747,4.587,4.48,8.213,9.067,8.853l46.293,6.4l84.053,232.427L412.805,298.773z"/> </g> </g> </g>
</svg>