<!DOCTYPE svg PUBLIC "-//W3C//DTD SVG 1.1//EN" "http://www.w3.org/Graphics/SVG/1.1/DTD/svg11.dtd">
<!-- Uploaded to: SVG Repo, www.svgrepo.com, Transformed by: SVG Repo Mixer Tools -->
<svg fill="#999999" width="199px" height="199px" viewBox="-1.5 -1.5 33.00 33.00" xmlns="http://www.w3.org/2000/svg" stroke="#999999">
<g id="SVGRepo_bgCarrier" stroke-width="0"/>
<g id="SVGRepo_tracerCarrier" stroke-linecap="round" stroke-linejoin="round"/>
<g id="SVGRepo_iconCarrier">
<path d="M24.5 4c.445 0 .67.536.35.846l-.99.992c-.465.487-1.184-.234-.698-.7l.99-.993c.092-.096.214-.145.348-.145zm-20 0c-.445 0-.67.536-.35.846l.99.992c.465.487 1.184-.234.698-.7l-.99-.993C4.757 4.05 4.635 4 4.5 4zM26 14.5c0-.277.223-.5.5-.5h2c.277 0 .5.223.5.5s-.223.5-.5.5h-2c-.277 0-.5-.223-.5-.5zm-26 0c0-.277.223-.5.5-.5h2c.277 0 .5.223.5.5s-.223.5-.5.5h-2c-.277 0-.5-.223-.5-.5zM14.5 26c.277 0 .5.223.5.5v2c0 .277-.223.5-.5.5s-.5-.223-.5-.5v-2c0-.277.223-.5.5-.5zm0-26c.277 0 .5.223.5.5v2c0 .277-.223.5-.5.5s-.5-.223-.5-.5v-2c0-.277.223-.5.5-.5zm0 5C9.26 5 5 9.26 5 14.5S9.26 24 14.5 24s9.5-4.26 9.5-9.5S19.74 5 14.5 5zm0 1c4.7 0 8.5 3.8 8.5 8.5S19.2 23 14.5 23 6 19.2 6 14.5 9.8 6 14.5 6zm10 19c.445 0 .67-.536.35-.846l-.99-.992c-.465-.487-1.184.234-.698.7l.99.993c.092.096.214.145.348.145zm-20 0c-.445 0-.67-.536-.35-.846l.99-.992c.465-.487 1.184.234.698.7l-.99.993c-.092.096-.214.145-.348.145z"/>
</g>
</svg>